<?xml version="1.0" encoding="UTF-8"?>
<svg enable-background="new 0 0 28.2 32.1" version="1.1" viewBox="0 0 28.2 32.1" xml:space="preserve" xmlns="http://www.w3.org/2000/svg">
<style type="text/css">
	.st0{clip-path:url(#SVGID_2_);}
	.st1{fill:none;stroke:#ED0F0E;stroke-width:5;stroke-miterlimit:10;}
	.st2{fill:#ED0F0E;}
	.st3{fill:none;stroke:#FFFFFF;stroke-width:3;stroke-miterlimit:10;}
	.st4{fill:#595959;}
	.st5{fill:#131313;}
	.st6{fill:#FFFFFF;}
	.st7{fill:#FFC400;}
	.st8{fill:none;stroke:#131313;stroke-width:0;stroke-miterlimit:10;}
	.st9{fill:#3A3A3A;}
	.st10{fill:#939393;}
	.st11{opacity:9.000000e-02;}
	.st12{fill:#353535;}
	.st13{fill:none;stroke:#B2B2B2;stroke-width:2;stroke-miterlimit:10;}
</style>
		<path class="st2" d="m14.1 2c3.4 0 6.1 2.7 6.1 6.1s-2.7 6.1-6.1 6.1-6.1-2.7-6.1-6.1 2.7-6.1 6.1-6.1m0-2c-4.5 0-8.1 3.6-8.1 8.1s3.6 8.1 8.1 8.1 8.1-3.6 8.1-8.1-3.6-8.1-8.1-8.1z"/>
		<path class="st2" d="m14.1 20.1c6 0 11 4.4 11.9 10.1h-23.8c0.9-5.8 5.9-10.1 11.9-10.1m0-2c-7.8 0-14.1 6.3-14.1 14h28.2c0-7.7-6.3-14-14.1-14z"/>
</svg>
